<svg width="30" height="30" viewBox="0 0 30 30" fill="none" xmlns="http://www.w3.org/2000/svg">
<g clip-path="url(#clip0_28_2)">
<path opacity="0.5" d="M30 26.128C30 28.2588 28.2769 29.9998 26.168 29.9998C24.0463 29.9998 22.3232 28.2588 22.3232 26.128C22.3232 23.9843 24.0463 22.2433 26.168 22.2433C28.2769 22.2433 30 23.9843 30 26.128Z" fill="url(#paint0_linear_28_2)"/>
<path opacity="0.5" d="M7.68968 26.128C7.68968 28.2588 5.96657 29.9998 3.84484 29.9998C1.7231 29.9998 0 28.2588 0 26.128C0 23.9843 1.7231 22.2433 3.84484 22.2433C5.96657 22.2433 7.68968 23.9843 7.68968 26.128Z" fill="url(#paint1_linear_28_2)"/>
<path opacity="0.5" d="M18.8384 15.0066C18.8384 17.1504 17.1282 18.8784 15.0064 18.8784C12.8847 18.8784 11.1616 17.1504 11.1616 15.0066C11.1616 12.8628 12.8847 11.1218 15.0064 11.1218C17.1282 11.1218 18.8384 12.8628 18.8384 15.0066Z" fill="url(#paint2_linear_28_2)"/>
<path d="M18.8384 25.8031C19.0184 28.1938 17.0639 30.1687 14.6978 29.9868C12.8718 29.8438 11.3673 28.3756 11.1873 26.5308C11.1873 26.5135 11.183 26.4961 11.1744 26.4787C11.0459 25.0107 10.4286 23.6205 9.38709 22.5811L7.43249 20.6322C6.39092 19.6057 5.02787 18.982 3.57481 18.8782C3.54052 18.8695 3.50621 18.8652 3.47192 18.8652C1.6331 18.6963 0.16717 17.1762 0.0128625 15.3181C-0.167163 12.9276 1.78741 10.9527 4.15346 11.1346C5.97944 11.2776 7.48394 12.7456 7.66397 14.5906C7.66397 14.608 7.66397 14.6253 7.66397 14.6425C7.80542 16.1107 8.42267 17.5009 9.46419 18.5404L11.4188 20.4892C12.4603 21.5287 13.8234 22.1523 15.2765 22.2562C15.3108 22.2562 15.3408 22.2562 15.3665 22.2562C17.2053 22.4382 18.6841 23.9452 18.8384 25.8031Z" fill="url(#paint3_linear_28_2)"/>
<path opacity="0.5" d="M30 3.88514C30 6.02891 28.2769 7.76993 26.168 7.76993C24.0463 7.76993 22.3232 6.02891 22.3232 3.88514C22.3232 1.74137 24.0463 0.000366211 26.168 0.000366211C28.2769 0.000366211 30 1.74137 30 3.88514Z" fill="url(#paint4_linear_28_2)"/>
<path d="M29.9872 14.6948C30.1672 17.0854 28.2255 19.0473 25.8594 18.8654C24.0463 18.7355 22.5547 17.2933 22.3489 15.4614C22.3489 15.4527 22.3489 15.4397 22.3489 15.4224C22.1946 13.9672 21.5645 12.59 20.5358 11.5506L18.5684 9.54975C17.5139 8.49735 16.138 7.87372 14.6593 7.74375C14.6507 7.74375 14.6378 7.74375 14.6207 7.74375C12.7947 7.56187 11.3159 6.05474 11.1745 4.19681C10.9816 1.80618 12.949 -0.181675 15.3151 0.0132134C17.1539 0.169124 18.6455 1.65027 18.8256 3.49521C18.8256 3.51254 18.8256 3.52553 18.8256 3.53419C18.9542 5.02833 19.5714 6.41853 20.613 7.48392L22.4389 9.3159C23.5062 10.3943 24.9336 11.0179 26.4381 11.1348C26.4552 11.1348 26.4724 11.1348 26.4895 11.1348C28.3412 11.2907 29.8457 12.8109 29.9872 14.6948Z" fill="url(#paint5_linear_28_2)"/>
<path opacity="0.5" d="M7.68968 3.88477C7.68968 6.02854 5.96657 7.76955 3.84484 7.76955C1.7231 7.76955 0 6.02854 0 3.88477C0 1.741 1.7231 0 3.84484 0C5.96657 0 7.68968 1.741 7.68968 3.88477Z" fill="url(#paint6_linear_28_2)"/>
</g>
<defs>
<linearGradient id="paint0_linear_28_2" x1="1831.75" y1="-270.954" x2="1831.75" y2="2156.07" gradientUnits="userSpaceOnUse">
<stop stop-color="#09BDD2"/>
<stop offset="0.5" stop-color="#13399E"/>
<stop offset="1" stop-color="#5C3B9F"/>
</linearGradient>
<linearGradient id="paint1_linear_28_2" x1="478.298" y1="-270.954" x2="478.298" y2="2156.07" gradientUnits="userSpaceOnUse">
<stop stop-color="#09BDD2"/>
<stop offset="0.5" stop-color="#13399E"/>
<stop offset="1" stop-color="#5C3B9F"/>
</linearGradient>
<linearGradient id="paint2_linear_28_2" x1="1154.24" y1="-282.076" x2="1154.24" y2="2144.95" gradientUnits="userSpaceOnUse">
<stop stop-color="#09BDD2"/>
<stop offset="0.5" stop-color="#13399E"/>
<stop offset="1" stop-color="#5C3B9F"/>
</linearGradient>
<linearGradient id="paint3_linear_28_2" x1="2806.56" y1="-636.305" x2="2806.56" y2="5164.12" gradientUnits="userSpaceOnUse">
<stop stop-color="#09BDD2"/>
<stop offset="0.5" stop-color="#13399E"/>
<stop offset="1" stop-color="#5C3B9F"/>
</linearGradient>
<linearGradient id="paint4_linear_28_2" x1="1831.75" y1="-293.688" x2="1831.75" y2="2137.4" gradientUnits="userSpaceOnUse">
<stop stop-color="#09BDD2"/>
<stop offset="0.5" stop-color="#13399E"/>
<stop offset="1" stop-color="#5C3B9F"/>
</linearGradient>
<linearGradient id="paint5_linear_28_2" x1="4451.13" y1="-673.913" x2="4451.13" y2="5125.13" gradientUnits="userSpaceOnUse">
<stop stop-color="#09BDD2"/>
<stop offset="0.5" stop-color="#13399E"/>
<stop offset="1" stop-color="#5C3B9F"/>
</linearGradient>
<linearGradient id="paint6_linear_28_2" x1="478.298" y1="-293.688" x2="478.298" y2="2137.4" gradientUnits="userSpaceOnUse">
<stop stop-color="#09BDD2"/>
<stop offset="0.5" stop-color="#13399E"/>
<stop offset="1" stop-color="#5C3B9F"/>
</linearGradient>
<clipPath id="clip0_28_2">
<rect width="30" height="30" fill="white"/>
</clipPath>
</defs>
</svg>
